<svg xmlns="http://www.w3.org/2000/svg" xmlns:xlink="http://www.w3.org/1999/xlink" width="1080" zoomAndPan="magnify" viewBox="0 0 810 809.999993" height="1080" preserveAspectRatio="xMidYMid meet" version="1.0"><defs><clipPath id="6d1b757bc1"><path d="M 83.503906 411 L 392 411 L 392 635 L 83.503906 635 Z M 83.503906 411 " clip-rule="nonzero"/></clipPath></defs><path fill="#d75548" d="M 725.277344 385.710938 C 725.277344 508.148438 653.726562 614.105469 550.257812 663.800781 C 509.976562 683.242188 464.808594 694.058594 417.0625 694.058594 C 246.9375 694.058594 108.851562 555.914062 108.851562 385.710938 C 108.851562 215.507812 246.9375 77.363281 417.0625 77.363281 C 587.191406 77.363281 725.277344 215.507812 725.277344 385.710938 Z M 725.277344 385.710938 " fill-opacity="1" fill-rule="nonzero"/><path fill="#74a942" d="M 543.34375 702.425781 C 503.0625 721.867188 457.894531 732.679688 410.148438 732.679688 C 327.402344 732.679688 252.246094 700.109375 197.039062 646.808594 L 349.535156 486.648438 C 365.105469 501.96875 386.597656 511.367188 410.148438 511.367188 C 423.53125 511.367188 436.398438 508.277344 447.726562 502.738281 Z M 543.34375 702.425781 " fill-opacity="1" fill-rule="nonzero"/><path fill="#35aadb" d="M 725.277344 385.710938 C 725.277344 508.148438 653.726562 614.105469 550.257812 663.800781 L 454.640625 464.117188 L 417.0625 385.710938 L 417.0625 77.363281 C 587.191406 77.363281 725.277344 215.507812 725.277344 385.710938 Z M 725.277344 385.710938 " fill-opacity="1" fill-rule="nonzero"/><g clip-path="url(#6d1b757bc1)"><path fill="#ffcb66" d="M 391.328125 411.460938 L 356.453125 448.023438 L 203.953125 608.183594 L 178.859375 634.578125 C 119.792969 578.574219 83.113281 499.265625 83.113281 411.460938 Z M 391.328125 411.460938 " fill-opacity="1" fill-rule="nonzero"/></g><path fill="#ffffff" d="M 504.019531 385.671875 C 504.019531 420.210938 483.824219 450.109375 454.621094 464.171875 C 443.292969 469.632812 430.464844 472.773438 417.09375 472.773438 C 393.484375 472.773438 372.058594 463.355469 356.503906 448.0625 C 346.132812 438.097656 338.351562 425.535156 333.984375 411.476562 C 331.527344 403.285156 330.027344 394.546875 330.027344 385.671875 C 330.027344 337.75 369.058594 298.707031 417.09375 298.707031 C 465.128906 298.707031 504.019531 337.75 504.019531 385.671875 Z M 504.019531 385.671875 " fill-opacity="1" fill-rule="nonzero"/><path fill="#ffffff" d="M 197.039062 221.570312 L 219.226562 221.570312 L 219.226562 282.648438 L 209.441406 282.648438 L 209.441406 230.75 L 197.039062 230.75 Z M 197.039062 221.570312 " fill-opacity="1" fill-rule="nonzero"/><path fill="#ffffff" d="M 232.9375 251.71875 C 232.9375 234.046875 240.023438 220.089844 257.828125 220.089844 C 275.597656 220.089844 282.722656 234.015625 282.722656 251.71875 C 282.722656 269.308594 275.699219 283.351562 257.828125 283.351562 C 240.0625 283.351562 232.9375 269.414062 232.9375 251.71875 Z M 242.898438 251.71875 C 242.898438 263.203125 246.351562 274.523438 257.828125 274.523438 C 269.335938 274.523438 272.59375 263.226562 272.59375 251.71875 C 272.59375 240.234375 269.351562 228.914062 257.828125 228.914062 C 246.351562 228.914062 242.898438 240.234375 242.898438 251.71875 Z M 242.898438 251.71875 " fill-opacity="1" fill-rule="nonzero"/><path fill="#ffffff" d="M 318.09375 233.980469 C 318.09375 241.511719 312.613281 247.960938 304.859375 247.960938 C 297.132812 247.960938 291.71875 241.640625 291.71875 234.070312 C 291.71875 226.554688 297.179688 220.089844 304.945312 220.089844 C 312.742188 220.089844 318.09375 226.507812 318.09375 233.980469 Z M 349.882812 221.570312 L 305.167969 282.648438 L 293.902344 282.648438 L 338.617188 221.570312 Z M 309.886719 234.152344 C 309.886719 230.976562 307.882812 227.949219 304.773438 227.949219 C 301.652344 227.949219 299.835938 230.992188 299.835938 234.152344 C 299.835938 237.355469 301.847656 240.359375 304.945312 240.359375 C 308.082031 240.359375 309.886719 237.304688 309.886719 234.152344 Z M 352.765625 269.367188 C 352.765625 276.988281 347.21875 283.347656 339.53125 283.347656 C 331.832031 283.347656 326.390625 277.054688 326.390625 269.457031 C 326.390625 261.871094 331.910156 255.476562 339.625 255.476562 C 347.304688 255.476562 352.765625 261.746094 352.765625 269.367188 Z M 344.726562 269.71875 C 344.726562 266.53125 342.734375 263.515625 339.625 263.515625 C 336.496094 263.515625 334.683594 266.5625 334.683594 269.71875 C 334.683594 272.902344 336.679688 275.921875 339.792969 275.921875 C 342.921875 275.921875 344.726562 272.890625 344.726562 269.71875 Z M 344.726562 269.71875 " fill-opacity="1" fill-rule="nonzero"/><path fill="#ffffff" d="M 553.402344 375.660156 C 563.09375 362.417969 543.804688 351.617188 533.664062 367.269531 L 525.363281 362.464844 C 542.96875 336.046875 585.625 356.414062 554.449219 388.417969 L 540.125 403.007812 L 567.808594 403.007812 L 567.808594 412.882812 L 526.066406 412.882812 L 526.066406 404.144531 C 531.488281 398.695312 549.25 381.335938 553.402344 375.660156 Z M 553.402344 375.660156 " fill-opacity="1" fill-rule="nonzero"/><path fill="#ffffff" d="M 577.589844 381.949219 C 577.589844 364.277344 584.671875 350.320312 602.480469 350.320312 C 636.125 350.320312 636.511719 413.582031 602.480469 413.582031 C 584.714844 413.582031 577.589844 399.644531 577.589844 381.949219 Z M 587.546875 381.949219 C 587.546875 393.433594 591 404.753906 602.480469 404.753906 C 613.984375 404.753906 617.242188 393.460938 617.242188 381.949219 C 617.242188 370.46875 614.003906 359.144531 602.480469 359.144531 C 591 359.144531 587.546875 370.464844 587.546875 381.949219 Z M 587.546875 381.949219 " fill-opacity="1" fill-rule="nonzero"/><path fill="#ffffff" d="M 662.746094 364.210938 C 662.746094 371.742188 657.265625 378.191406 649.511719 378.191406 C 641.78125 378.191406 636.371094 371.871094 636.371094 364.300781 C 636.371094 356.785156 641.828125 350.320312 649.597656 350.320312 C 657.390625 350.320312 662.746094 356.738281 662.746094 364.210938 Z M 694.53125 351.800781 L 649.816406 412.882812 L 638.550781 412.882812 L 683.265625 351.800781 Z M 654.535156 364.386719 C 654.535156 361.210938 652.535156 358.183594 649.425781 358.183594 C 646.304688 358.183594 644.484375 361.222656 644.484375 364.386719 C 644.484375 367.589844 646.5 370.589844 649.597656 370.589844 C 652.730469 370.589844 654.535156 367.535156 654.535156 364.386719 Z M 697.417969 399.597656 C 697.417969 407.222656 691.871094 413.582031 684.183594 413.582031 C 676.484375 413.582031 671.042969 407.289062 671.042969 399.6875 C 671.042969 392.101562 676.5625 385.707031 684.277344 385.707031 C 691.953125 385.707031 697.417969 391.980469 697.417969 399.597656 Z M 689.378906 399.949219 C 689.378906 396.761719 687.382812 393.746094 684.273438 393.746094 C 681.144531 393.746094 679.335938 396.796875 679.335938 399.949219 C 679.335938 403.132812 681.328125 406.15625 684.445312 406.15625 C 687.574219 406.15625 689.378906 403.121094 689.378906 399.949219 Z M 689.378906 399.949219 " fill-opacity="1" fill-rule="nonzero"/><path fill="#ffffff" d="M 299.625 620.28125 L 299.625 611.105469 L 335.347656 611.105469 L 335.347656 619.140625 L 320.582031 635.65625 C 326.175781 635.832031 330.542969 637.59375 333.683594 640.945312 C 336.832031 644.292969 338.402344 648.300781 338.402344 652.957031 C 338.402344 659.195312 336.289062 664.085938 332.066406 667.636719 C 327.847656 671.195312 322.417969 672.96875 315.777344 672.96875 C 309.144531 672.96875 302.648438 670.84375 296.300781 666.589844 L 300.671875 658.289062 C 305.675781 661.78125 310.914062 663.53125 316.386719 663.53125 C 319.941406 663.53125 322.871094 662.703125 325.164062 661.042969 C 327.46875 659.382812 328.621094 656.992188 328.621094 653.875 C 328.621094 650.761719 327.339844 648.273438 324.773438 646.40625 C 322.214844 644.542969 318.660156 643.613281 314.121094 643.613281 C 311.84375 643.613281 309.664062 643.929688 307.566406 644.570312 L 307.566406 636.703125 L 321.71875 620.28125 Z M 299.625 620.28125 " fill-opacity="1" fill-rule="nonzero"/><path fill="#ffffff" d="M 348.53125 641.25 C 348.53125 623.578125 355.617188 609.621094 373.421875 609.621094 C 391.1875 609.621094 398.3125 623.546875 398.3125 641.25 C 398.3125 658.839844 391.292969 672.882812 373.421875 672.882812 C 355.65625 672.882812 348.53125 658.945312 348.53125 641.25 Z M 358.488281 641.25 C 358.488281 652.734375 361.941406 664.050781 373.421875 664.050781 C 384.929688 664.050781 388.183594 652.757812 388.183594 641.25 C 388.183594 629.765625 384.945312 618.445312 373.421875 618.445312 C 361.941406 618.445312 358.488281 629.765625 358.488281 641.25 Z M 358.488281 641.25 " fill-opacity="1" fill-rule="nonzero"/><path fill="#ffffff" d="M 433.6875 623.511719 C 433.6875 631.039062 428.207031 637.492188 420.453125 637.492188 C 412.722656 637.492188 407.3125 631.171875 407.3125 623.601562 C 407.3125 616.085938 412.769531 609.621094 420.539062 609.621094 C 428.335938 609.621094 433.6875 616.039062 433.6875 623.511719 Z M 465.472656 611.101562 L 420.757812 672.179688 L 409.496094 672.179688 L 454.207031 611.101562 Z M 425.480469 623.683594 C 425.480469 620.507812 423.476562 617.480469 420.367188 617.480469 C 417.246094 617.480469 415.429688 620.523438 415.429688 623.683594 C 415.429688 626.886719 417.441406 629.886719 420.539062 629.886719 C 423.675781 629.890625 425.480469 626.832031 425.480469 623.683594 Z M 468.359375 658.898438 C 468.359375 666.523438 462.8125 672.882812 455.125 672.882812 C 447.425781 672.882812 441.984375 666.585938 441.984375 658.988281 C 441.984375 651.402344 447.503906 645.007812 455.21875 645.007812 C 462.894531 645.007812 468.359375 651.277344 468.359375 658.898438 Z M 460.320312 659.25 C 460.320312 656.058594 458.324219 653.046875 455.21875 653.046875 C 452.085938 653.046875 450.277344 656.09375 450.277344 659.25 C 450.277344 662.433594 452.273438 665.453125 455.386719 665.453125 C 458.515625 665.453125 460.320312 662.421875 460.320312 659.25 Z M 460.320312 659.25 " fill-opacity="1" fill-rule="nonzero"/><path fill="#696867" d="M 375.6875 331.09375 L 385.921875 331.09375 L 385.921875 440.3125 L 375.6875 440.3125 Z M 375.6875 331.09375 " fill-opacity="1" fill-rule="nonzero"/><path fill="#696867" d="M 399.855469 390.058594 L 410.089844 390.058594 L 410.089844 440.3125 L 399.855469 440.3125 Z M 399.855469 390.058594 " fill-opacity="1" fill-rule="nonzero"/><path fill="#696867" d="M 424.066406 358.070312 L 434.230469 358.070312 L 434.230469 440.328125 L 424.066406 440.328125 Z M 424.066406 358.070312 " fill-opacity="1" fill-rule="nonzero"/><path fill="#696867" d="M 448.207031 390.058594 L 458.441406 390.058594 L 458.441406 440.3125 L 448.207031 440.3125 Z M 448.207031 390.058594 " fill-opacity="1" fill-rule="nonzero"/></svg>