<svg xmlns="http://www.w3.org/2000/svg" xmlns:xlink="http://www.w3.org/1999/xlink" width="1920" zoomAndPan="magnify" viewBox="0 0 1440 809.999993" height="1080" preserveAspectRatio="xMidYMid meet" version="1.0"><defs><g/><clipPath id="9833a503db"><path d="M 431.234375 243 L 719.984375 243 L 719.984375 567 L 431.234375 567 Z M 431.234375 243 " clip-rule="nonzero"/></clipPath></defs><g clip-path="url(#9833a503db)"><path fill="#000000" d="M 592.957031 566.726562 C 503.78125 566.726562 431.234375 494.175781 431.234375 404.996094 C 431.234375 315.824219 503.78125 243.273438 592.957031 243.273438 C 637.90625 243.273438 681.191406 262.210938 711.710938 295.222656 L 719.984375 304.167969 L 657.363281 362.082031 L 649.085938 353.136719 C 634.445312 337.296875 614.507812 328.574219 592.957031 328.574219 C 550.8125 328.574219 516.53125 362.859375 516.53125 404.996094 C 516.53125 427.792969 526.644531 449.246094 544.277344 463.859375 L 528.722656 482.625 C 505.488281 463.363281 492.164062 435.074219 492.164062 404.996094 C 492.164062 349.417969 537.378906 304.203125 592.957031 304.203125 C 617.273438 304.203125 640.023438 312.617188 658.183594 328.125 L 685.148438 303.191406 C 660.019531 280.476562 627.054688 267.648438 592.957031 267.648438 C 517.222656 267.648438 455.609375 329.257812 455.609375 404.996094 C 455.609375 480.734375 517.222656 542.351562 592.957031 542.351562 C 621.871094 542.351562 649.546875 533.464844 672.976562 516.644531 C 679.253906 512.140625 685.199219 507.050781 690.671875 501.519531 L 708.007812 518.640625 C 701.582031 525.152344 694.574219 531.144531 687.179688 536.441406 C 659.589844 556.253906 627.007812 566.726562 592.957031 566.726562 " fill-opacity="1" fill-rule="nonzero"/></g><g fill="#000000" fill-opacity="1"><g transform="translate(575.629208, 454.773864)"><g><path d="M 27.515625 -32.46875 C 26.285156 -32.289062 25.671875 -31.863281 25.671875 -31.1875 C 25.671875 -31 25.757812 -30.722656 25.9375 -30.359375 C 26.125 -29.992188 26.25 -29.71875 26.3125 -29.53125 L 38.828125 -2.484375 C 39.128906 -1.929688 39.382812 -1.546875 39.59375 -1.328125 C 39.8125 -1.117188 40.226562 -0.953125 40.84375 -0.828125 L 40.84375 0 L 30.734375 0 L 30.734375 -0.828125 C 31.585938 -1.128906 32.015625 -1.4375 32.015625 -1.75 C 32.015625 -1.9375 31.953125 -2.179688 31.828125 -2.484375 L 28.421875 -9.75 L 12.703125 -9.75 L 9.390625 -2.671875 C 9.140625 -2.179688 9.015625 -1.84375 9.015625 -1.65625 C 9.015625 -1.40625 9.503906 -1.128906 10.484375 -0.828125 L 10.484375 0 L 1.28125 0 L 1.28125 -0.828125 C 1.957031 -1.078125 2.414062 -1.289062 2.65625 -1.46875 C 2.90625 -1.65625 3.15625 -2.054688 3.40625 -2.671875 L 16.09375 -29.4375 C 16.21875 -29.6875 16.375 -30.007812 16.5625 -30.40625 C 16.75 -30.800781 16.84375 -31.0625 16.84375 -31.1875 C 16.84375 -31.738281 16.195312 -32.164062 14.90625 -32.46875 L 14.90625 -33.296875 L 27.515625 -33.296875 Z M 26.5 -14.078125 L 20.703125 -26.953125 L 14.8125 -14.078125 Z M 26.5 -14.078125 "/></g></g></g><g fill="#000000" fill-opacity="1"><g transform="translate(617.76166, 454.773864)"><g><path d="M 39.75 -23.640625 C 39.75 -20.515625 38.566406 -18.078125 36.203125 -16.328125 C 33.835938 -14.578125 30.878906 -13.703125 27.328125 -13.703125 L 13.609375 -13.703125 L 13.609375 -2.484375 C 13.609375 -2.054688 13.773438 -1.703125 14.109375 -1.421875 C 14.453125 -1.148438 15.023438 -0.953125 15.828125 -0.828125 L 15.828125 0 L 4.6875 0 L 4.6875 -0.828125 C 6.164062 -1.191406 6.90625 -1.679688 6.90625 -2.296875 L 6.90625 -30.734375 C 6.90625 -31.222656 6.71875 -31.601562 6.34375 -31.875 C 5.976562 -32.15625 5.425781 -32.351562 4.6875 -32.46875 L 4.6875 -33.296875 L 27.78125 -33.296875 C 31.28125 -33.296875 34.148438 -32.453125 36.390625 -30.765625 C 38.628906 -29.085938 39.75 -26.710938 39.75 -23.640625 Z M 33.03125 -23.453125 C 33.03125 -25.359375 32.25 -26.691406 30.6875 -27.453125 C 29.125 -28.222656 27.296875 -28.609375 25.203125 -28.609375 L 13.609375 -28.609375 L 13.609375 -18.40625 L 26.125 -18.40625 C 28.394531 -18.40625 30.113281 -18.863281 31.28125 -19.78125 C 32.445312 -20.695312 33.03125 -21.921875 33.03125 -23.453125 Z M 33.03125 -23.453125 "/></g></g></g><g fill="#000000" fill-opacity="1"><g transform="translate(659.894111, 454.773864)"><g><path d="M 17.109375 -32.46875 C 16.316406 -32.289062 15.75 -32.09375 15.40625 -31.875 C 15.070312 -31.664062 14.90625 -31.375 14.90625 -31 L 14.90625 -2.296875 C 14.90625 -1.617188 15.640625 -1.128906 17.109375 -0.828125 L 17.109375 0 L 5.984375 0 L 5.984375 -0.828125 C 7.453125 -1.128906 8.1875 -1.617188 8.1875 -2.296875 L 8.1875 -31 C 8.1875 -31.375 8.015625 -31.664062 7.671875 -31.875 C 7.335938 -32.09375 6.773438 -32.289062 5.984375 -32.46875 L 5.984375 -33.296875 L 17.109375 -33.296875 Z M 17.109375 -32.46875 "/></g></g></g><g fill="#000000" fill-opacity="1"><g transform="translate(682.89218, 454.773864)"><g><path d="M 3.6875 -35.515625 C 3.863281 -34.710938 4.054688 -34.140625 4.265625 -33.796875 C 4.484375 -33.460938 4.78125 -33.296875 5.15625 -33.296875 L 37.078125 -33.296875 C 37.441406 -33.296875 37.726562 -33.460938 37.9375 -33.796875 C 38.15625 -34.140625 38.359375 -34.710938 38.546875 -35.515625 L 39.375 -35.515625 L 39.375 -26.40625 L 38.546875 -26.40625 C 38.359375 -27.195312 38.15625 -27.757812 37.9375 -28.09375 C 37.726562 -28.4375 37.441406 -28.609375 37.078125 -28.609375 L 24.46875 -28.609375 L 24.46875 -2.203125 C 24.46875 -1.648438 25.207031 -1.191406 26.6875 -0.828125 L 26.6875 0 L 15.546875 0 L 15.546875 -0.828125 C 16.285156 -1.015625 16.835938 -1.195312 17.203125 -1.375 C 17.566406 -1.5625 17.75 -1.835938 17.75 -2.203125 L 17.75 -28.609375 L 5.25 -28.609375 C 4.875 -28.609375 4.578125 -28.453125 4.359375 -28.140625 C 4.148438 -27.835938 3.925781 -27.257812 3.6875 -26.40625 L 2.859375 -26.40625 L 2.859375 -35.515625 Z M 3.6875 -35.515625 "/></g></g></g><g fill="#000000" fill-opacity="1"><g transform="translate(725.024631, 454.773864)"><g><path d="M 27.515625 -32.46875 C 26.285156 -32.289062 25.671875 -31.863281 25.671875 -31.1875 C 25.671875 -31 25.757812 -30.722656 25.9375 -30.359375 C 26.125 -29.992188 26.25 -29.71875 26.3125 -29.53125 L 38.828125 -2.484375 C 39.128906 -1.929688 39.382812 -1.546875 39.59375 -1.328125 C 39.8125 -1.117188 40.226562 -0.953125 40.84375 -0.828125 L 40.84375 0 L 30.734375 0 L 30.734375 -0.828125 C 31.585938 -1.128906 32.015625 -1.4375 32.015625 -1.75 C 32.015625 -1.9375 31.953125 -2.179688 31.828125 -2.484375 L 28.421875 -9.75 L 12.703125 -9.75 L 9.390625 -2.671875 C 9.140625 -2.179688 9.015625 -1.84375 9.015625 -1.65625 C 9.015625 -1.40625 9.503906 -1.128906 10.484375 -0.828125 L 10.484375 0 L 1.28125 0 L 1.28125 -0.828125 C 1.957031 -1.078125 2.414062 -1.289062 2.65625 -1.46875 C 2.90625 -1.65625 3.15625 -2.054688 3.40625 -2.671875 L 16.09375 -29.4375 C 16.21875 -29.6875 16.375 -30.007812 16.5625 -30.40625 C 16.75 -30.800781 16.84375 -31.0625 16.84375 -31.1875 C 16.84375 -31.738281 16.195312 -32.164062 14.90625 -32.46875 L 14.90625 -33.296875 L 27.515625 -33.296875 Z M 26.5 -14.078125 L 20.703125 -26.953125 L 14.8125 -14.078125 Z M 26.5 -14.078125 "/></g></g></g><g fill="#000000" fill-opacity="1"><g transform="translate(767.157083, 454.773864)"><g><path d="M 15.828125 -32.46875 C 15.023438 -32.289062 14.453125 -32.09375 14.109375 -31.875 C 13.773438 -31.664062 13.609375 -31.40625 13.609375 -31.09375 L 13.609375 -4.6875 L 37.171875 -4.6875 C 37.535156 -4.6875 37.820312 -4.851562 38.03125 -5.1875 C 38.25 -5.53125 38.453125 -6.101562 38.640625 -6.90625 L 39.46875 -6.90625 L 39.46875 2.203125 L 38.640625 2.203125 C 38.453125 1.472656 38.265625 0.921875 38.078125 0.546875 C 37.898438 0.179688 37.597656 0 37.171875 0 L 4.6875 0 L 4.6875 -0.828125 C 6.164062 -1.078125 6.90625 -1.535156 6.90625 -2.203125 L 6.90625 -31.09375 C 6.90625 -31.40625 6.75 -31.648438 6.4375 -31.828125 C 6.132812 -32.015625 5.550781 -32.226562 4.6875 -32.46875 L 4.6875 -33.296875 L 15.828125 -33.296875 Z M 15.828125 -32.46875 "/></g></g></g><g fill="#000000" fill-opacity="1"><g transform="translate(809.289535, 454.773864)"><g/></g></g><g fill="#000000" fill-opacity="1"><g transform="translate(823.180373, 454.773864)"><g><path d="M 38.734375 -26.40625 C 38.546875 -27.144531 38.34375 -27.695312 38.125 -28.0625 C 37.914062 -28.425781 37.628906 -28.609375 37.265625 -28.609375 L 13.34375 -28.609375 L 13.34375 -19.40625 L 28.421875 -19.40625 C 28.972656 -19.40625 29.4375 -20.144531 29.8125 -21.625 L 30.640625 -21.625 L 30.640625 -12.515625 L 29.8125 -12.515625 C 29.625 -13.304688 29.421875 -13.867188 29.203125 -14.203125 C 28.992188 -14.546875 28.734375 -14.71875 28.421875 -14.71875 L 13.34375 -14.71875 L 13.34375 -4.6875 L 37.265625 -4.6875 C 37.628906 -4.6875 37.914062 -4.851562 38.125 -5.1875 C 38.34375 -5.53125 38.546875 -6.101562 38.734375 -6.90625 L 39.5625 -6.90625 L 39.5625 2.203125 L 38.734375 2.203125 C 38.546875 1.472656 38.359375 0.921875 38.171875 0.546875 C 37.992188 0.179688 37.691406 0 37.265625 0 L 4.421875 0 L 4.421875 -0.828125 C 5.890625 -1.191406 6.625 -1.679688 6.625 -2.296875 L 6.625 -31 C 6.625 -31.375 6.453125 -31.664062 6.109375 -31.875 C 5.773438 -32.09375 5.210938 -32.289062 4.421875 -32.46875 L 4.421875 -33.296875 L 37.265625 -33.296875 C 37.878906 -33.296875 38.367188 -34.035156 38.734375 -35.515625 L 39.5625 -35.515625 L 39.5625 -26.40625 Z M 38.734375 -26.40625 "/></g></g></g><g fill="#000000" fill-opacity="1"><g transform="translate(865.312824, 454.773864)"><g><path d="M 44.4375 -16.5625 C 44.4375 -11.40625 42.882812 -7.351562 39.78125 -4.40625 C 36.6875 -1.46875 32.597656 0 27.515625 0 L 4.78125 0 L 4.78125 -0.828125 C 6.25 -1.128906 6.984375 -1.585938 6.984375 -2.203125 L 6.984375 -31.09375 C 6.984375 -31.457031 6.800781 -31.734375 6.4375 -31.921875 C 6.070312 -32.109375 5.519531 -32.289062 4.78125 -32.46875 L 4.78125 -33.296875 L 27.59375 -33.296875 C 32.382812 -33.296875 36.390625 -31.851562 39.609375 -28.96875 C 42.828125 -26.09375 44.4375 -21.957031 44.4375 -16.5625 Z M 26.859375 -4.6875 C 29.804688 -4.6875 32.273438 -5.648438 34.265625 -7.578125 C 36.265625 -9.515625 37.265625 -12.539062 37.265625 -16.65625 C 37.265625 -20.820312 36.21875 -23.851562 34.125 -25.75 C 32.039062 -27.65625 29.34375 -28.609375 26.03125 -28.609375 L 13.703125 -28.609375 L 13.703125 -4.6875 Z M 26.859375 -4.6875 "/></g></g></g><g fill="#000000" fill-opacity="1"><g transform="translate(912.22886, 454.773864)"><g><path d="M 24.015625 -34.046875 C 28.054688 -34.046875 32.53125 -33.03125 37.4375 -31 C 37.8125 -30.875 38.148438 -30.75 38.453125 -30.625 C 38.765625 -30.507812 39.007812 -30.453125 39.1875 -30.453125 C 39.5 -30.453125 39.929688 -30.820312 40.484375 -31.5625 L 40.9375 -31.28125 L 36.796875 -23.09375 L 36.25 -23.28125 C 36.488281 -23.832031 36.609375 -24.289062 36.609375 -24.65625 C 36.609375 -24.957031 36.546875 -25.21875 36.421875 -25.4375 C 36.304688 -25.65625 36.035156 -25.882812 35.609375 -26.125 C 34.128906 -27.050781 32.394531 -27.773438 30.40625 -28.296875 C 28.414062 -28.816406 26.347656 -29.078125 24.203125 -29.078125 C 19.785156 -29.078125 16.285156 -27.941406 13.703125 -25.671875 C 11.128906 -23.398438 9.84375 -20.332031 9.84375 -16.46875 C 9.84375 -13.03125 11.035156 -10.128906 13.421875 -7.765625 C 15.816406 -5.410156 19.625 -4.234375 24.84375 -4.234375 C 26.800781 -4.234375 28.546875 -4.367188 30.078125 -4.640625 C 31.617188 -4.921875 33.273438 -5.398438 35.046875 -6.078125 L 35.046875 -12.234375 L 26.3125 -12.234375 C 25.945312 -12.234375 25.6875 -12.09375 25.53125 -11.8125 C 25.375 -11.539062 25.207031 -11.035156 25.03125 -10.296875 L 24.203125 -10.296875 L 24.203125 -19.140625 L 25.03125 -19.140625 C 25.269531 -18.398438 25.492188 -17.84375 25.703125 -17.46875 C 25.921875 -17.101562 26.273438 -16.921875 26.765625 -16.921875 L 43.703125 -16.921875 L 43.703125 -16.09375 C 42.171875 -15.789062 41.40625 -15.332031 41.40625 -14.71875 L 41.40625 -6.078125 C 41.40625 -5.640625 42.171875 -5.421875 43.703125 -5.421875 L 43.703125 -4.59375 C 39.472656 -2.632812 35.898438 -1.253906 32.984375 -0.453125 C 30.066406 0.335938 27.046875 0.734375 23.921875 0.734375 C 19.742188 0.734375 16.046875 0.015625 12.828125 -1.421875 C 9.609375 -2.867188 7.109375 -4.894531 5.328125 -7.5 C 3.554688 -10.101562 2.671875 -13.0625 2.671875 -16.375 C 2.671875 -19.6875 3.585938 -22.691406 5.421875 -25.390625 C 7.265625 -28.085938 9.8125 -30.203125 13.0625 -31.734375 C 16.3125 -33.273438 19.960938 -34.046875 24.015625 -34.046875 Z M 24.015625 -34.046875 "/></g></g></g><g fill="#000000" fill-opacity="1"><g transform="translate(959.14492, 454.773864)"><g><path d="M 38.734375 -26.40625 C 38.546875 -27.144531 38.34375 -27.695312 38.125 -28.0625 C 37.914062 -28.425781 37.628906 -28.609375 37.265625 -28.609375 L 13.34375 -28.609375 L 13.34375 -19.40625 L 28.421875 -19.40625 C 28.972656 -19.40625 29.4375 -20.144531 29.8125 -21.625 L 30.640625 -21.625 L 30.640625 -12.515625 L 29.8125 -12.515625 C 29.625 -13.304688 29.421875 -13.867188 29.203125 -14.203125 C 28.992188 -14.546875 28.734375 -14.71875 28.421875 -14.71875 L 13.34375 -14.71875 L 13.34375 -4.6875 L 37.265625 -4.6875 C 37.628906 -4.6875 37.914062 -4.851562 38.125 -5.1875 C 38.34375 -5.53125 38.546875 -6.101562 38.734375 -6.90625 L 39.5625 -6.90625 L 39.5625 2.203125 L 38.734375 2.203125 C 38.546875 1.472656 38.359375 0.921875 38.171875 0.546875 C 37.992188 0.179688 37.691406 0 37.265625 0 L 4.421875 0 L 4.421875 -0.828125 C 5.890625 -1.191406 6.625 -1.679688 6.625 -2.296875 L 6.625 -31 C 6.625 -31.375 6.453125 -31.664062 6.109375 -31.875 C 5.773438 -32.09375 5.210938 -32.289062 4.421875 -32.46875 L 4.421875 -33.296875 L 37.265625 -33.296875 C 37.878906 -33.296875 38.367188 -34.035156 38.734375 -35.515625 L 39.5625 -35.515625 L 39.5625 -26.40625 Z M 38.734375 -26.40625 "/></g></g></g></svg>